<?xml version="1.0" encoding="UTF-8"?>
<svg version="1.1" xmlns="http://www.w3.org/2000/svg" width="618" height="126">
<path d="M0 0 C0.7130127 0.0736377 1.42602539 0.14727539 2.16064453 0.22314453 C7.0130177 0.82644912 10.89830302 2.14414456 15.3125 4.25 C14.65830901 9.31998019 12.4578591 13.66990777 10.3125 18.25 C9.66925781 18.0334375 9.02601562 17.816875 8.36328125 17.59375 C-0.02093783 15.01031017 -8.70326348 13.55891975 -17.1875 16.4375 C-23.93596779 21.33013915 -26.67630124 26.22683077 -28.6875 34.25 C-29.70433848 41.72941191 -28.53499278 49.65604497 -24.515625 56.140625 C-22.23799499 59.03687057 -20.12712092 60.98976914 -16.6875 62.25 C-14.06323495 62.38958857 -11.55457253 62.43931369 -8.9375 62.375 C-7.89142578 62.36146484 -7.89142578 62.36146484 -6.82421875 62.34765625 C-5.11183042 62.32419888 -3.39961996 62.28833104 -1.6875 62.25 C-1.3575 57.63 -1.0275 53.01 -0.6875 48.25 C-5.3075 48.25 -9.9275 48.25 -14.6875 48.25 C-14.6875 43.3 -14.6875 38.35 -14.6875 33.25 C-4.7875 33.25 5.1125 33.25 15.3125 33.25 C15.3125 46.78 15.3125 60.31 15.3125 74.25 C0.18203945 77.74164474 -17.40570109 81.65824845 -31.87890625 73.50390625 C-40.21508342 67.72439681 -44.21003635 60.44577889 -46.27954102 50.69824219 C-46.94056158 46.73132762 -47.02861256 42.82725096 -47 38.8125 C-46.99436035 37.97992676 -46.9887207 37.14735352 -46.98291016 36.28955078 C-46.76691986 25.3553095 -43.86642669 16.33407474 -35.90625 8.49609375 C-25.37356489 -0.11567133 -13.01584835 -1.3914555 0 0 Z " fill="#F93433" transform="translate(61.6875,15.75)"/>
<path d="M0 0 C6.39420537 4.91748358 8.50435976 12.35279989 10 20 C10.97800543 30.03279729 9.99244556 39.42786 5.1875 48.375 C0.54200296 53.94959645 -3.7597999 57.27466119 -11 58 C-16.69304221 57.99033439 -21.03736803 56.9049553 -26 54 C-26.66 53.67 -27.32 53.34 -28 53 C-28 62.57 -28 72.14 -28 82 C-33.61 82 -39.22 82 -45 82 C-45 54.28 -45 26.56 -45 -2 C-40.38 -2 -35.76 -2 -31 -2 C-30.34 -0.35 -29.68 1.3 -29 3 C-28.46890625 2.65066406 -27.9378125 2.30132812 -27.390625 1.94140625 C-26.68421875 1.48636719 -25.9778125 1.03132813 -25.25 0.5625 C-24.55390625 0.11003906 -23.8578125 -0.34242187 -23.140625 -0.80859375 C-16.12258511 -4.7146196 -6.82465601 -3.99668016 0 0 Z M-27 16 C-29.51966381 23.25599388 -28.90991654 32.95493891 -26 40 C-24.177945 42.87692895 -23.0116307 42.99720002 -19.625 43.8125 C-15.91138259 44.00458366 -14.14724471 43.92331621 -11 42 C-6.56386954 36.29640369 -6.34015472 28.97550727 -7 22 C-7.9090285 18.14999694 -9.12711545 15.03452984 -11.6875 12 C-18.30572746 9.1380638 -22.7619669 10.3492892 -27 16 Z " fill="#3CB6FA" transform="translate(378,36)"/>
<path d="M0 0 C1.06605469 0.00257812 2.13210938 0.00515625 3.23046875 0.0078125 C4.81794922 0.00394531 4.81794922 0.00394531 6.4375 0 C9.41796875 0.1328125 9.41796875 0.1328125 13.41796875 1.1328125 C13.41796875 15.9828125 13.41796875 30.8328125 13.41796875 46.1328125 C21.21703021 37.57657242 21.21703021 37.57657242 28.84765625 28.88671875 C29.36585938 28.30792969 29.8840625 27.72914062 30.41796875 27.1328125 C30.95164062 26.40449219 31.4853125 25.67617188 32.03515625 24.92578125 C35.70430556 22.16489677 39.21207889 22.70179197 43.66796875 22.8828125 C44.5084375 22.90085937 45.34890625 22.91890625 46.21484375 22.9375 C48.2830427 22.98450452 50.35065316 23.05624526 52.41796875 23.1328125 C51.02367978 27.4697445 49.01673946 29.8301493 45.73046875 32.9453125 C40.51887787 37.99851928 35.45538105 43.07669406 31.41796875 49.1328125 C32.15660156 50.11378906 32.89523437 51.09476563 33.65625 52.10546875 C40.64484334 61.39886029 47.56276018 70.74063698 54.41796875 80.1328125 C54.08796875 80.7928125 53.75796875 81.4528125 53.41796875 82.1328125 C47.41144639 83.22490747 41.29994704 84.20966215 35.41796875 82.1328125 C30.24696299 77.86829249 27.00491728 71.87724538 23.67675781 66.15039062 C22.20748514 63.79545087 20.518058 61.94426389 18.41796875 60.1328125 C16.27670505 61.01347814 16.27670505 61.01347814 14.41796875 63.1328125 C13.77505375 66.15874778 13.76645979 69.172181 13.73046875 72.2578125 C13.50709918 81.04368207 13.50709918 81.04368207 12.41796875 82.1328125 C9.72142021 82.20600871 7.05105417 82.22523787 4.35546875 82.1953125 C3.59685547 82.19080078 2.83824219 82.18628906 2.05664062 82.18164062 C0.17705004 82.1698193 -1.70250024 82.15188328 -3.58203125 82.1328125 C-3.60515468 71.58899938 -3.62294634 61.04519225 -3.63384342 50.50135899 C-3.63907225 45.60595876 -3.64616989 40.71057582 -3.6574707 35.81518555 C-3.66829959 31.09493272 -3.67430809 26.37469658 -3.67690849 21.6544323 C-3.67876274 19.84942296 -3.68238334 18.04441458 -3.68776131 16.23941231 C-3.69497177 13.72021606 -3.69602219 11.2010896 -3.69555664 8.68188477 C-3.69915192 7.92807022 -3.70274719 7.17425568 -3.70645142 6.39759827 C-3.69395604 0.19000682 -3.69395604 0.19000682 0 0 Z " fill="#3CB6FA" transform="translate(528.58203125,10.8671875)"/>
<path d="M0 0 C0.495 0.99 0.495 0.99 1 2 C0.26821134 4.07196631 -0.55899003 6.1108552 -1.4375 8.125 C-1.91058594 9.22070312 -2.38367188 10.31640625 -2.87109375 11.4453125 C-3.24363281 12.28835937 -3.61617188 13.13140625 -4 14 C-5.41681634 13.68817931 -6.83344651 13.37551263 -8.25 13.0625 C-9.03890625 12.88847656 -9.8278125 12.71445312 -10.640625 12.53515625 C-12.09489968 12.20529593 -13.54377809 11.84877177 -14.98046875 11.44921875 C-17.37327654 10.91696944 -19.6121161 10.79435084 -22.0625 10.75 C-22.91972656 10.72421875 -23.77695312 10.6984375 -24.66015625 10.671875 C-27.05148029 10.81524595 -27.05148029 10.81524595 -28.77734375 12.33203125 C-30.23576714 14.06074548 -30.23576714 14.06074548 -30.5 16.9375 C-30.2985293 20.09962671 -30.2985293 20.09962671 -27.9921875 21.92578125 C-25.03411506 23.97635105 -22.08988142 25.56116986 -18.86938477 27.14550781 C-10.41241954 31.30729512 -4.51905738 35.1859052 0.4375 43.375 C2.3149193 52.13629005 0.798093 58.67567445 -4.0625 66.1875 C-9.01269887 71.68119252 -16.23403279 73.13034867 -23.3125 73.875 C-32.68152504 74.3401289 -40.59644324 73.20177838 -49 69 C-49 63.72 -49 58.44 -49 53 C-47.659375 53.45375 -46.31875 53.9075 -44.9375 54.375 C-44.10734375 54.64699219 -43.2771875 54.91898438 -42.421875 55.19921875 C-40.50105257 55.83432939 -38.59192159 56.50478283 -36.6875 57.1875 C-30.32435501 58.5895489 -23.3025197 58.88022664 -17 57 C-16.57740672 53.93619869 -16.34455873 51.96023068 -17 49 C-20.33792191 44.80231032 -25.47636481 42.73816501 -30.21728516 40.49780273 C-37.71475459 36.95143422 -43.43843483 33.30609928 -47.1484375 25.62109375 C-49.09904304 19.6171657 -49.03107361 12.4751813 -46.5625 6.625 C-43.14431742 0.84779 -37.16710093 -2.64730459 -30.8125 -4.4375 C-20.48912114 -6.18204312 -9.45611535 -4.38856492 0 0 Z " fill="#3CB5FA" transform="translate(321,20)"/>
<path d="M0 0 C4.10318775 3.20351339 5.62251262 5.55411802 6.96875 10.67578125 C7.2428506 14.06982232 7.22556215 17.44809506 7.19921875 20.8515625 C7.19876053 21.81732712 7.19830231 22.78309174 7.1978302 23.77812195 C7.1948197 25.80953203 7.18696958 27.84094004 7.17456055 29.87231445 C7.1562103 32.99503666 7.15405166 36.11746367 7.15429688 39.24023438 C7.14938483 41.21484633 7.14355788 43.18945628 7.13671875 45.1640625 C7.13560593 46.10252518 7.1344931 47.04098785 7.13334656 48.00788879 C7.12696671 48.8693602 7.12058685 49.7308316 7.11401367 50.6184082 C7.10829597 51.76041435 7.10829597 51.76041435 7.10246277 52.92549133 C6.96875 54.67578125 6.96875 54.67578125 5.96875 55.67578125 C4.11587498 55.74804627 2.26041122 55.75959345 0.40625 55.73828125 C-0.60566406 55.72925781 -1.61757813 55.72023437 -2.66015625 55.7109375 C-3.83384766 55.69353516 -3.83384766 55.69353516 -5.03125 55.67578125 C-6.4918785 53.02839209 -7.03125 51.78129791 -7.03125 48.67578125 C-7.49273437 49.08570313 -7.95421875 49.495625 -8.4296875 49.91796875 C-14.97954025 55.32871667 -21.24815007 57.11260676 -29.71875 56.55078125 C-35.68234255 55.62357958 -39.54640547 53.46520927 -43.46875 48.73828125 C-46.34685027 42.96962141 -46.15389153 35.5087053 -44.37109375 29.421875 C-42.1266092 24.92318951 -38.6033368 22.42885499 -34.03125 20.67578125 C-26.16979916 18.21468304 -18.19019138 18.46416606 -10.03125 18.67578125 C-10.31276087 17.36106557 -10.60678339 16.04902358 -10.90625 14.73828125 C-11.06867188 14.00738281 -11.23109375 13.27648437 -11.3984375 12.5234375 C-11.86086523 10.46877831 -11.86086523 10.46877831 -14.03125 9.67578125 C-21.4600707 8.91981515 -27.98619379 10.42564923 -35.03125 12.67578125 C-35.89752399 11.07812022 -36.74891465 9.47238181 -37.59375 7.86328125 C-38.06941406 6.96996094 -38.54507812 6.07664062 -39.03515625 5.15625 C-40.03125 2.67578125 -40.03125 2.67578125 -39.03125 -0.32421875 C-27.07852904 -5.55681548 -11.37807551 -7.41762999 0 0 Z M-26.96875 32.42578125 C-28.38528564 35.42550378 -28.51923025 37.39934245 -28.03125 40.67578125 C-25.71074954 43.46038181 -24.20383765 43.65695351 -20.59375 44.05078125 C-16.80637139 43.65210982 -14.98405637 43.03802635 -12.03125 40.67578125 C-9.2405571 37.08774752 -9.88659666 33.01538146 -10.03125 28.67578125 C-19.13504134 28.30071712 -19.13504134 28.30071712 -26.96875 32.42578125 Z " fill="#3CB5FA" transform="translate(503.03125,37.32421875)"/>
<path d="M0 0 C4.78564174 4.13305423 7.23150898 9.30103593 8.75 15.375 C8.75 20.325 8.75 25.275 8.75 30.375 C-3.46 30.375 -15.67 30.375 -28.25 30.375 C-25.33049754 38.91365209 -25.33049754 38.91365209 -21.5 41.4375 C-12.48940464 44.0367102 -3.90391465 41.25963822 4.75 38.375 C6.56039196 40.18539196 6.04880517 42.80590435 6.125 45.25 C6.17398438 46.31992188 6.22296875 47.38984375 6.2734375 48.4921875 C5.75 51.375 5.75 51.375 3.56640625 53.1796875 C-6.63946446 57.51116661 -19.85007666 57.82871125 -30.1875 53.75 C-37.27574371 50.09368062 -41.74849793 44.8795062 -44.25 37.375 C-46.83092172 26.56057448 -45.66239253 15.94701525 -40.5625 6.125 C-29.62625889 -6.8802597 -14.44646035 -7.22323018 0 0 Z M-25.25 10.375 C-27.35831259 13.34580411 -27.25 14.56614823 -27.25 18.375 C-20.65 18.375 -14.05 18.375 -7.25 18.375 C-7.74456547 12.73982777 -7.74456547 12.73982777 -9.875 10.0625 C-15.20641244 6.27439116 -19.98341487 6.82311701 -25.25 10.375 Z " fill="#3BB6FB" transform="translate(441.25,37.625)"/>
<path d="M0 0 C5.86286615 4.46996058 9.68349766 11.58373392 10.99609375 18.81640625 C11.72351681 29.92359682 11.15659037 40.18256637 3.84375 49.05859375 C-2.83909792 55.41648289 -11.02176354 57.023032 -20.00390625 56.81640625 C-27.38637855 56.15372763 -33.68268185 53.3880112 -38.765625 47.921875 C-45.00259427 40.02372748 -46.06713116 31.72164262 -46.00390625 21.81640625 C-45.05624841 13.97500217 -42.74782869 7.38545517 -37.00390625 1.81640625 C-26.60197175 -6.17036645 -11.20708305 -6.61938824 0 0 Z M-26.00390625 12.81640625 C-28.98570435 19.08032744 -29.77297713 26.39837215 -28.31640625 33.19140625 C-26.93574676 37.00465626 -26.10506752 39.19234671 -23.00390625 41.81640625 C-18.81619002 43.07899485 -15.29180151 43.23637209 -11.12890625 41.87890625 C-6.44228941 37.33013108 -5.80907087 32.00483519 -5.62890625 25.75390625 C-5.79565178 19.7510671 -6.65473976 15.51359741 -10.69140625 10.87890625 C-16.04576839 8.41879391 -21.55707153 9.02351781 -26.00390625 12.81640625 Z " fill="#FA3333" transform="translate(135.00390625,37.18359375)"/>
<path d="M0 0 C6.27 0 12.54 0 19 0 C18.73643583 5.97753302 18.47090821 11.95491345 18.20043945 17.93212891 C18.10912611 19.96300227 18.0189405 21.99392668 17.92993164 24.02490234 C17.80135087 26.95424515 17.66863516 29.88337678 17.53515625 32.8125 C17.47727684 34.16142334 17.47727684 34.16142334 17.41822815 35.53759766 C17.17654362 40.73998119 16.7156726 45.84086564 16 51 C11.71 51 7.42 51 3 51 C1.41440336 47.82880672 1.63612124 44.36947571 1.46484375 40.87890625 C1.42186661 40.06437485 1.37888947 39.24984344 1.33460999 38.41062927 C1.24429355 36.67986884 1.15617614 34.9489925 1.07006836 33.21801758 C0.9395724 30.60401297 0.80143586 27.99050023 0.66210938 25.37695312 C0.22146641 16.90864083 -0.11620471 8.48294376 0 0 Z " fill="#F83433" transform="translate(186,17)"/>
<path d="M0 0 C6.27 0 12.54 0 19 0 C18.73667565 6.13826945 18.47123772 12.27637282 18.20043945 18.41430664 C18.1090313 20.50051575 18.01884696 22.58677886 17.92993164 24.6730957 C17.801594 27.67935121 17.66879385 30.68538224 17.53515625 33.69140625 C17.47727684 35.08088219 17.47727684 35.08088219 17.41822815 36.49842834 C17.19587293 41.39654652 16.79071798 46.16011085 16 51 C11.71 51 7.42 51 3 51 C1.75352694 47.26058082 1.65685861 43.64920988 1.46484375 39.74609375 C1.42186661 38.93060562 1.37888947 38.11511749 1.33460999 37.2749176 C1.24442162 35.54593079 1.15629498 33.8168354 1.07006836 32.08764648 C0.93920327 29.47154971 0.80120662 26.85590491 0.66210938 24.24023438 C0.24144094 16.15289089 -0.12540564 8.10120447 0 0 Z " fill="#FA3332" transform="translate(216,17)"/>
<path d="M0 0 C6.27 0 12.54 0 19 0 C18.73618233 5.81679553 18.47056142 11.63345278 18.20043945 17.44995117 C18.109226 19.42548917 18.01903948 21.40107489 17.92993164 23.37670898 C17.80109369 26.22913805 17.66846836 29.0813707 17.53515625 31.93359375 C17.47727684 33.24196449 17.47727684 33.24196449 17.41822815 34.57676697 C17.15613098 40.08675151 16.66013632 45.52304483 16 51 C11.71 51 7.42 51 3 51 C1.41440336 47.82880672 1.63612124 44.36947571 1.46484375 40.87890625 C1.42186661 40.06437485 1.37888947 39.24984344 1.33460999 38.41062927 C1.24429355 36.67986884 1.15617614 34.9489925 1.07006836 33.21801758 C0.9395724 30.60401297 0.80143586 27.99050023 0.66210938 25.37695312 C0.22146641 16.90864083 -0.11620471 8.48294376 0 0 Z " fill="#F83433" transform="translate(156,17)"/>
<path d="M0 0 C0 0.66 0 1.32 0 2 C-0.99 2 -1.98 2 -3 2 C-3 1.34 -3 0.68 -3 0 C-5.31 0 -7.62 0 -10 0 C-10.33 0.99 -10.66 1.98 -11 3 C-11.99 3 -12.98 3 -14 3 C-14.144375 3.61875 -14.28875 4.2375 -14.4375 4.875 C-15 7 -15 7 -16 9 C-14.906875 8.484375 -13.81375 7.96875 -12.6875 7.4375 C-9 6 -9 6 -6 7 C-5.4375 8.8125 -5.4375 8.8125 -5 11 C-4.36345658 12.3479743 -3.70394612 13.68596724 -3 15 C-4.5159375 13.9790625 -4.5159375 13.9790625 -6.0625 12.9375 C-9.08786379 11.20696737 -10.06934461 11.00115574 -13.75 11.0625 C-17.58546803 12.12170462 -17.58546803 12.12170462 -20 15 C-20.66 16.98 -21.32 18.96 -22 21 C-15.4 21 -8.8 21 -2 21 C-2 21.33 -2 21.66 -2 22 C-12.395 22.495 -12.395 22.495 -23 23 C-23.33 19.04 -23.66 15.08 -24 11 C-24.66 11 -25.32 11 -26 11 C-26 10.01 -26 9.02 -26 8 C-30.83256305 8.41421969 -32.82679218 10.46413986 -36 14 C-36.33 13.34 -36.66 12.68 -37 12 C-33.33359421 5.58378987 -28.53845921 1.46879439 -21.6875 -1.375 C-14.15959163 -2.65091667 -7.21390405 -2.56494366 0 0 Z " fill="#3FB5F8" transform="translate(436,35)"/>
<path d="M0 0 C2.45235504 3.15099107 2.58973889 6.83173842 2.34375 10.7265625 C0.57871686 13.64799667 -0.61472635 15.20580067 -3.65625 16.7265625 C-8.64845285 17.10333253 -11.63645143 16.80052611 -15.65625 13.7265625 C-17.38285813 10.27334623 -17.14672852 6.50257521 -16.65625 2.7265625 C-14.88586132 0.19743581 -13.62562843 -0.83888855 -10.84375 -2.0859375 C-7.02674251 -2.41310957 -3.12340195 -2.40148358 0 0 Z " fill="#FA3230" transform="translate(232.65625,77.2734375)"/>
<path d="M0 0 C1.81864092 3.1321038 2.25022528 6.3755365 2.125 9.9375 C0.55069236 13.55840756 -0.56382926 14.73005284 -3.875 16.9375 C-8.86385232 17.39943077 -11.86380248 17.00488634 -15.875 13.9375 C-17.60160813 10.48428373 -17.36547852 6.71351271 -16.875 2.9375 C-15.10461132 0.40837331 -13.84437843 -0.62795105 -11.0625 -1.875 C-7.1599094 -2.20950777 -3.44997847 -1.9549878 0 0 Z " fill="#F23737" transform="translate(202.875,77.0625)"/>
<path d="M0 0 C2.23442542 2.30213528 2.92409278 3.7683441 3.12109375 6.96484375 C2.9033632 10.7364988 2.36237339 12.57367837 -0.125 15.5 C-3.75210258 17.39240135 -5.95406136 17.50574233 -10 17 C-14.6 14.8 -14.6 14.8 -16 12 C-16.51185155 7.65345729 -16.81254765 4.16078236 -14.25 0.5 C-9.4393609 -2.70709274 -5.17695405 -2.1936246 0 0 Z " fill="#F53534" transform="translate(172,77)"/>
<path d="M0 0 C8.57142857 0.85714286 8.57142857 0.85714286 12 3 C11.34580901 8.06998019 9.1453591 12.41990777 7 17 C6.37996094 16.7834375 5.75992188 16.566875 5.12109375 16.34375 C-3.10141882 13.75850587 -10.46212439 13.68890332 -19 14 C-18.67 13.34 -18.34 12.68 -18 12 C-13.05 12 -8.1 12 -3 12 C-1.59379814 7.78139441 -0.61620078 4.31340543 0 0 Z " fill="#F63533" transform="translate(65,17)"/>
<path d="M0 0 C0.33 0.99 0.66 1.98 1 3 C1.66 3 2.32 3 3 3 C3.33 2.34 3.66 1.68 4 1 C8.90322581 5.29032258 8.90322581 5.29032258 9.375 8.75 C9 11 9 11 8 12 C5.81360547 12.07258946 3.62499611 12.08373783 1.4375 12.0625 C-0.35880859 12.04896484 -0.35880859 12.04896484 -2.19140625 12.03515625 C-3.11824219 12.02355469 -4.04507813 12.01195313 -5 12 C-5 11.34 -5 10.68 -5 10 C-3.35 9.34 -1.7 8.68 0 8 C0 5.36 0 2.72 0 0 Z " fill="#3BB6F9" transform="translate(570,80)"/>
<path d="M0 0 C2 2 2 2 2.1953125 5.4765625 C2.18201493 6.85950968 2.15816232 8.24238654 2.125 9.625 C2.11597656 10.33140625 2.10695312 11.0378125 2.09765625 11.765625 C2.07407603 13.51056098 2.03820461 15.25532295 2 17 C2.99 16.67 3.98 16.34 5 16 C5 17.32 5 18.64 5 20 C5.01160156 20.75539063 5.02320313 21.51078125 5.03515625 22.2890625 C5.04417969 23.05992188 5.05320313 23.83078125 5.0625 24.625 C5.07410156 25.40101562 5.08570313 26.17703125 5.09765625 26.9765625 C5 29 5 29 4 31 C7.3 31.33 10.6 31.66 14 32 C14 30.02 14 28.04 14 26 C14.33 26 14.66 26 15 26 C15 28.31 15 30.62 15 33 C10.71 33 6.42 33 2 33 C1.12951417 30.38854251 0.82258094 28.63049144 0.68359375 25.9375 C0.6206311 24.74894409 0.6206311 24.74894409 0.55639648 23.53637695 C0.51716064 22.69937256 0.4779248 21.86236816 0.4375 21 C0.3950415 20.14946045 0.35258301 19.2989209 0.30883789 18.42260742 C0.01846207 12.27914314 -0.1243924 6.15051291 0 0 Z " fill="#E73B3B" transform="translate(217,35)"/>
<path d="M0 0 C0 4.02646222 -1.20506099 7.41012198 -3 11 C-3.66 11 -4.32 11 -5 11 C-4.67 11.99 -4.34 12.98 -4 14 C-4.99 14.33 -5.98 14.66 -7 15 C-6.85764543 16.72945653 -6.71095618 18.45855654 -6.5625 20.1875 C-6.48128906 21.15042969 -6.40007812 22.11335938 -6.31640625 23.10546875 C-6.0511196 25.95839107 -6.0511196 25.95839107 -5.46875 28.5625 C-4.99121354 31.0456896 -4.89982346 33.2881717 -4.9375 35.8125 C-4.94652344 36.60269531 -4.95554687 37.39289063 -4.96484375 38.20703125 C-4.98224609 39.09455078 -4.98224609 39.09455078 -5 40 C-10.08288042 32.37567937 -9.51705584 22.72034257 -8 14 C-6.31807831 8.58756006 -3.81381496 4.222438 0 0 Z " fill="#E33F3E" transform="translate(98,39)"/>
<path d="M0 0 C0 0.66 0 1.32 0 2 C-0.99 2 -1.98 2 -3 2 C-3 1.34 -3 0.68 -3 0 C-9.27 0.33 -15.54 0.66 -22 1 C-22.33 1.99 -22.66 2.98 -23 4 C-24.3303125 4.061875 -24.3303125 4.061875 -25.6875 4.125 C-30.21629527 5.32128554 -31.29643492 7.26271887 -34 11 C-34.66 10.67 -35.32 10.34 -36 10 C-27.18169301 -1.89135336 -13.89694878 -4.94113734 0 0 Z " fill="#52B1E9" transform="translate(436,35)"/>
<path d="M0 0 C6.97669157 -0.39325819 12.51656189 0.36903961 19 3 C18.35546875 3.27585938 17.7109375 3.55171875 17.046875 3.8359375 C14.71229528 4.84757889 14.71229528 4.84757889 14.25 7.625 C14.1675 8.40875 14.085 9.1925 14 10 C11.69 9.67 9.38 9.34 7 9 C7.66 8.01 8.32 7.02 9 6 C9.33 4.68 9.66 3.36 10 2 C6.7 2 3.4 2 0 2 C0 1.34 0 0.68 0 0 Z " fill="#ED3A38" transform="translate(113,33)"/>
<path d="M0 0 C0.99 0.33 1.98 0.66 3 1 C2.4740625 1.8353125 2.4740625 1.8353125 1.9375 2.6875 C0.74618397 5.62607953 1.30176435 6.92776315 2 10 C2.09459388 12.67352183 2.04536312 15.32357583 2 18 C1.67 18 1.34 18 1 18 C0.87882812 17.43410156 0.75765625 16.86820313 0.6328125 16.28515625 C0.46523438 15.55167969 0.29765625 14.81820312 0.125 14.0625 C-0.03742188 13.33160156 -0.19984375 12.60070312 -0.3671875 11.84765625 C-0.82961523 9.79299706 -0.82961523 9.79299706 -3 9 C-8.40486458 8.6694867 -13.69264005 8.88266106 -19 10 C-19.33 9.01 -19.66 8.02 -20 7 C-11.585 6.505 -11.585 6.505 -3 6 C-2.34 4.35 -1.68 2.7 -1 1 C-0.67 0.67 -0.34 0.34 0 0 Z " fill="#4EB3F0" transform="translate(492,38)"/>
<path d="M0 0 C-0.33 2.31 -0.66 4.62 -1 7 C-2.32 7 -3.64 7 -5 7 C-3.75023244 10.65316671 -3.32901247 11.78065836 0 14 C-1.32 14.33 -2.64 14.66 -4 15 C-4.86627399 13.40233897 -5.71766465 11.79660056 -6.5625 10.1875 C-7.03816406 9.29417969 -7.51382812 8.40085937 -8.00390625 7.48046875 C-9 5 -9 5 -8 2 C-5.27366306 0.89786379 -2.95855967 0 0 0 Z " fill="#4AB2ED" transform="translate(472,35)"/>
<path d="M0 0 C-0.165 0.61875 -0.33 1.2375 -0.5 1.875 C-1.07634644 3.96063386 -1.07634644 3.96063386 -1 6 C3.40914783 7.10228696 7.48382401 7.07654536 12 7 C11.67 7.66 11.34 8.32 11 9 C8.49609375 9.6328125 8.49609375 9.6328125 5.4375 10.125 C4.42558594 10.29257812 3.41367187 10.46015625 2.37109375 10.6328125 C1.19740234 10.81457031 1.19740234 10.81457031 0 11 C-0.33 10.34 -0.66 9.68 -1 9 C-4.02934491 8.34227572 -4.02934491 8.34227572 -7 8 C-4.73913043 0 -4.73913043 0 0 0 Z " fill="#4AB3F4" transform="translate(353,38)"/>
<path d="M0 0 C0.86625 0.37125 0.86625 0.37125 1.75 0.75 C0.5434375 1.306875 0.5434375 1.306875 -0.6875 1.875 C-3.56172896 3.5609337 -3.56172896 3.5609337 -4.0625 6.9375 C-4.1553125 8.3296875 -4.1553125 8.3296875 -4.25 9.75 C-3.59 9.75 -2.93 9.75 -2.25 9.75 C-2.58 11.4 -2.91 13.05 -3.25 14.75 C0.05 15.41 3.35 16.07 6.75 16.75 C6.75 17.08 6.75 17.41 6.75 17.75 C1.75815264 18.04363808 -1.22444744 17.82836372 -5.25 14.75 C-6.97704516 11.29590969 -6.73884297 7.52681416 -6.25 3.75 C-3.49137931 -0.38793103 -3.49137931 -0.38793103 0 0 Z " fill="#E14143" transform="translate(222.25,76.25)"/>
<path d="M0 0 C0.66 0.33 1.32 0.66 2 1 C2.13504138 2.93559313 2.23201129 4.873872 2.3125 6.8125 C2.39951172 8.43091797 2.39951172 8.43091797 2.48828125 10.08203125 C2 13 2 13 -0.1875 14.84375 C-3.02958281 16.01216182 -5.25832139 16.48388809 -8.3125 16.6875 C-9.19550781 16.75324219 -10.07851563 16.81898437 -10.98828125 16.88671875 C-11.98408203 16.94279297 -11.98408203 16.94279297 -13 17 C-13 16.34 -13 15.68 -13 15 C-12.39671875 14.93941406 -11.7934375 14.87882812 -11.171875 14.81640625 C-10.37265625 14.73261719 -9.5734375 14.64882812 -8.75 14.5625 C-7.96109375 14.48128906 -7.1721875 14.40007812 -6.359375 14.31640625 C-4.17635361 14.02365007 -2.1226818 13.57935581 0 13 C-0.14095064 11.3745692 -0.28792087 9.74965949 -0.4375 8.125 C-0.51871094 7.22007813 -0.59992188 6.31515625 -0.68359375 5.3828125 C-0.86989285 2.98889139 -0.86989285 2.98889139 -2 1 C-1.34 0.67 -0.68 0.34 0 0 Z " fill="#56B0E5" transform="translate(445,76)"/>
<path d="M0 0 C0.99 0.33 1.98 0.66 3 1 C2.34580901 6.06998019 0.1453591 10.41990777 -2 15 C-4.31 14.34 -6.62 13.68 -9 13 C-8.38125 12.855625 -7.7625 12.71125 -7.125 12.5625 C-4.96741678 12.06847775 -4.96741678 12.06847775 -3 11 C-3 8.69 -3 6.38 -3 4 C-2.34 3.67 -1.68 3.34 -1 3 C-0.67 2.01 -0.34 1.02 0 0 Z " fill="#E63B3D" transform="translate(74,19)"/>
<path d="M0 0 C5.47943334 2.41739706 8.31930652 6.83496958 11 12 C11.68610173 14.44590812 11.89121947 16.44365762 12 19 C11.34 18.67 10.68 18.34 10 18 C9.375 15.4375 9.375 15.4375 9 13 C7.68 13.33 6.36 13.66 5 14 C5.165 13.05125 5.33 12.1025 5.5 11.125 C6.0526635 8.19831099 6.0526635 8.19831099 6 6 C4.35 5.67 2.7 5.34 1 5 C0.67 3.35 0.34 1.7 0 0 Z " fill="#E33F40" transform="translate(133,37)"/>
<path d="M0 0 C0.66 0.33 1.32 0.66 2 1 C1.34 4.96 0.68 8.92 0 13 C1.32 13 2.64 13 4 13 C4 13.66 4 14.32 4 15 C6.97 15.495 6.97 15.495 10 16 C10 16.33 10 16.66 10 17 C1.90850945 16.66073415 1.90850945 16.66073415 -1.0625 14.5 C-2.47622592 10.73006422 -2.56398915 6.97722221 -2 3 C-1.34 2.01 -0.68 1.02 0 0 Z " fill="#E54143" transform="translate(158,77)"/>
<path d="M0 0 C0.66 0.33 1.32 0.66 2 1 C2.30567686 10.17030568 2.30567686 10.17030568 0 13 C-4.722542 16.22515063 -9.42580163 16.81754909 -15 16 C-15.99 15.34 -16.98 14.68 -18 14 C-17.67 13.34 -17.34 12.68 -17 12 C-15.515 12.99 -15.515 12.99 -14 14 C-9.86069947 14.30104004 -6.42900613 14.54000454 -3 12 C-0.42222525 8.47251876 -0.42237688 4.22376877 0 0 Z " fill="#53B2E8" transform="translate(493,66)"/>
<path d="M0 0 C2.0625 0.4375 2.0625 0.4375 4 1 C4.12375 1.5775 4.2475 2.155 4.375 2.75 C5.00648824 5.02335767 5.88858191 6.9253529 7 9 C6.030625 8.319375 5.06125 7.63875 4.0625 6.9375 C-0.38456255 4.34034257 -4.11682489 4.98128773 -9 6 C-9.33 5.01 -9.66 4.02 -10 3 C-7 2 -7 2 -3.875 1.5 C-1.11169115 1.30352229 -1.11169115 1.30352229 0 0 Z " fill="#49B3EF" transform="translate(426,41)"/>
<path d="M0 0 C0.60328125 0.08378906 1.2065625 0.16757813 1.828125 0.25390625 C3.02695312 0.40666016 3.02695312 0.40666016 4.25 0.5625 C5.03890625 0.66691406 5.8278125 0.77132812 6.640625 0.87890625 C9.00532874 1.00027349 10.7511037 0.69633257 13 0 C10.74275265 3.10371511 7.92311768 3.90597385 4.265625 4.71875 C0.46836522 5.19013397 -3.29130765 4.95410343 -7 4 C-7.66 3.34 -8.32 2.68 -9 2 C-6.03 2 -3.06 2 0 2 C0 1.34 0 0.68 0 0 Z " fill="#50B4ED" transform="translate(365,89)"/>
<path d="M0 0 C0.33 0 0.66 0 1 0 C1.00257813 0.60585938 1.00515625 1.21171875 1.0078125 1.8359375 C1.33805786 8.99125372 3.39777696 14.45085939 8 20 C9.65622952 21.01719298 11.32111559 22.02065076 13 23 C13 23.66 13 24.32 13 25 C7.81683445 23.62798559 4.93594768 20.2962988 2 16 C0.15529083 12.26122489 -0.22498338 9.33681009 -0.125 5.1875 C-0.10695313 4.21167969 -0.08890625 3.23585937 -0.0703125 2.23046875 C-0.04710937 1.49441406 -0.02390625 0.75835937 0 0 Z " fill="#5AB0E8" transform="translate(273,32)"/>
<path d="M0 0 C1.65 1.65 3.3 3.3 5 5 C4.67 5.66 4.34 6.32 4 7 C1.08110852 7.16216064 -1.82879225 7.28091202 -4.75 7.375 C-5.9875 7.45041016 -5.9875 7.45041016 -7.25 7.52734375 C-9.64221876 7.58522001 -11.67372905 7.57087094 -14 7 C-16.578125 3.9765625 -16.578125 3.9765625 -18 1 C-14.125 2.75 -14.125 2.75 -13 5 C-8.71 5 -4.42 5 0 5 C0 3.35 0 1.7 0 0 Z " fill="#5CADDC" transform="translate(578,86)"/>
<path d="M0 0 C0.66 0 1.32 0 2 0 C2 2.64 2 5.28 2 8 C2.99 8.33 3.98 8.66 5 9 C5.33 9.99 5.66 10.98 6 12 C5.34 12 4.68 12 4 12 C4.350625 12.5775 4.70125 13.155 5.0625 13.75 C6.16577711 16.39786506 5.80156509 17.33185326 5 20 C1.93914605 13.30883089 0.31323199 7.36095182 0 0 Z " fill="#E83E3E" transform="translate(15,59)"/>
<path d="M0 0 C1 3 1 3 0.22265625 4.82421875 C-0.8515625 6.54947917 -1.92578125 8.27473958 -3 10 C-3.99 10 -4.98 10 -6 10 C-6.33 10.66 -6.66 11.32 -7 12 C-6.7589852 5.85412262 -6.7589852 5.85412262 -4.59765625 3.421875 C-3.11953029 2.21155069 -1.56352047 1.09779097 0 0 Z " fill="#FA302F" transform="translate(29,22)"/>
<path d="M0 0 C1.65 0 3.3 0 5 0 C3.25 4.875 3.25 4.875 1 6 C0.31527335 7.88764903 0.31527335 7.88764903 -0.125 10.0625 C-0.29257812 10.79597656 -0.46015625 11.52945313 -0.6328125 12.28515625 C-0.75398438 12.85105469 -0.87515625 13.41695312 -1 14 C-1.33 14 -1.66 14 -2 14 C-2.21192221 8.80790596 -1.5912689 4.873261 0 0 Z " fill="#EE3938" transform="translate(17,38)"/>
<path d="M0 0 C0.7528125 -0.01417969 1.505625 -0.02835938 2.28125 -0.04296875 C4.74864173 0.21332722 6.36356256 0.95904847 8.5 2.1875 C6.98019531 2.26097656 6.98019531 2.26097656 5.4296875 2.3359375 C4.07810089 2.41102564 2.72653962 2.48657081 1.375 2.5625 C0.70984375 2.5934375 0.0446875 2.624375 -0.640625 2.65625 C-4.89821262 2.90669633 -8.52085783 3.66278197 -12.5 5.1875 C-8.57056402 0.83705302 -5.74784229 0.04921098 0 0 Z " fill="#56B0E6" transform="translate(365.5,32.8125)"/>
<path d="M0 0 C0.66 0 1.32 0 2 0 C2.33 0.99 2.66 1.98 3 3 C2.67 3.66 2.34 4.32 2 5 C1.49957854 7.91538029 1.49957854 7.91538029 2 11 C4.20688307 13.28232418 4.20688307 13.28232418 7 15 C7.763125 15.5775 8.52625 16.155 9.3125 16.75 C9.869375 17.1625 10.42625 17.575 11 18 C6.37167127 17.45549074 3.28578057 16.36219407 0 13 C-0.5250951 8.62601197 -0.34212826 4.38431032 0 0 Z " fill="#50ADEB" transform="translate(289,29)"/>
<path d="M0 0 C2.66666667 1.33333333 5.33333333 2.66666667 8 4 C7.67 4.99 7.34 5.98 7 7 C6.01 6.34 5.02 5.68 4 5 C1.48415109 4.75849227 1.48415109 4.75849227 -1.1875 4.875 C-2.53908203 4.90207031 -2.53908203 4.90207031 -3.91796875 4.9296875 C-4.94857422 4.96449219 -4.94857422 4.96449219 -6 5 C-5.67 4.01 -5.34 3.02 -5 2 C-3.35 2 -1.7 2 0 2 C0 1.34 0 0.68 0 0 Z " fill="#E73F3E" transform="translate(118,43)"/>
<path d="M0 0 C1.32 0.33 2.64 0.66 4 1 C3.35546875 1.30550781 2.7109375 1.61101562 2.046875 1.92578125 C-1.17524549 5.19094533 -0.67477205 8.76614829 -0.75 13.1875 C-0.77964844 14.03248047 -0.80929687 14.87746094 -0.83984375 15.74804688 C-0.9104699 17.83151822 -0.95750795 19.91576506 -1 22 C-1.33 22 -1.66 22 -2 22 C-2.05807043 18.89591193 -2.09361914 15.7919636 -2.125 12.6875 C-2.14175781 11.80642578 -2.15851562 10.92535156 -2.17578125 10.01757812 C-2.18222656 9.17001953 -2.18867187 8.32246094 -2.1953125 7.44921875 C-2.20578613 6.66893311 -2.21625977 5.88864746 -2.22705078 5.0847168 C-2 3 -2 3 0 0 Z " fill="#5AB4E4" transform="translate(543,70)"/>
<path d="M0 0 C1.93719378 -0.05406122 3.87481921 -0.09282025 5.8125 -0.125 C6.89144531 -0.14820313 7.97039063 -0.17140625 9.08203125 -0.1953125 C12 0 12 0 15 2 C10.05 2.33 5.1 2.66 0 3 C0 2.01 0 1.02 0 0 Z " fill="#3ACAF6" transform="translate(526,11)"/>
<path d="M0 0 C0.99 0.33 1.98 0.66 3 1 C-0.33562767 5.51290803 -2.33289301 7.68206814 -8 9 C-8 8.34 -8 7.68 -8 7 C-7.01 7 -6.02 7 -5 7 C-4.67 5.68 -4.34 4.36 -4 3 C-2.68 2.67 -1.36 2.34 0 2 C0 1.34 0 0.68 0 0 Z " fill="#4BB6EA" transform="translate(316,82)"/>
<path d="M0 0 C2.64752004 2.57784846 4.94432065 4.91648098 7 8 C6.67 8.99 6.34 9.98 6 11 C5.01 11 4.02 11 3 11 C3 10.34 3 9.68 3 9 C2.34 8.67 1.68 8.34 1 8 C1.20625 7.4225 1.4125 6.845 1.625 6.25 C2.08661261 3.48032433 1.42944945 2.35438733 0 0 Z " fill="#4EB1EC" transform="translate(378,37)"/>
<path d="M0 0 C0.33 0.66 0.66 1.32 1 2 C0.0625 4.625 0.0625 4.625 -1 7 C-2.4391134 6.71640113 -3.87625518 6.42278601 -5.3125 6.125 C-6.11300781 5.96257813 -6.91351563 5.80015625 -7.73828125 5.6328125 C-10 5 -10 5 -13 3 C-9.04 3.33 -5.08 3.66 -1 4 C-0.67 2.68 -0.34 1.36 0 0 Z " fill="#5BADE2" transform="translate(318,27)"/>
<path d="M0 0 C0.66 0.33 1.32 0.66 2 1 C0.54540569 2.64913882 -0.91379257 4.29421782 -2.375 5.9375 C-3.18710937 6.85402344 -3.99921875 7.77054688 -4.8359375 8.71484375 C-7 11 -7 11 -9 12 C-9 11.01 -9 10.02 -9 9 C-7.34997172 7.64613064 -5.6825613 6.31321858 -4 5 C-3.67 4.01 -3.34 3.02 -3 2 C-2.01 1.34 -1.02 0.68 0 0 Z " fill="#56AFE4" transform="translate(568,47)"/>
<path d="M0 0 C3 2 3 2 3.6171875 4.05859375 C3.74480469 5.23615234 3.74480469 5.23615234 3.875 6.4375 C3.97554687 7.21996094 4.07609375 8.00242187 4.1796875 8.80859375 C4 11 4 11 2.5078125 12.78515625 C2.01023438 13.18605469 1.51265625 13.58695313 1 14 C1 12.35412495 1.0052965 10.70810417 1.03515625 9.0625 C1.04417969 8.381875 1.05320313 7.70125 1.0625 7 C1.07410156 6.319375 1.08570313 5.63875 1.09765625 4.9375 C1.07571369 2.78035646 1.07571369 2.78035646 0 0 Z " fill="#DA3F43" transform="translate(231,77)"/>
<path d="M0 0 C2.46800047 1.15173355 4.04783565 2.04783565 6 4 C5.67 4.66 5.34 5.32 5 6 C5.66 6 6.32 6 7 6 C7.33 7.65 7.66 9.3 8 11 C4.31993178 7.61831569 2.0214155 4.57478244 0 0 Z " fill="#4DB0E8" transform="translate(552,75)"/>
<path d="M0 0 C-1.27192363 2.54384726 -2.19948469 2.69368156 -4.8125 3.6875 C-5.49957031 3.95949219 -6.18664062 4.23148438 -6.89453125 4.51171875 C-9.29376496 5.06812731 -10.6894364 4.77364938 -13 4 C-4.738041 -0.59225513 -4.738041 -0.59225513 0 0 Z " fill="#50B5EB" transform="translate(294,16)"/>
<path d="M0 0 C1 3 1 3 0.22265625 5.04296875 C-0.16019531 5.75066406 -0.54304687 6.45835938 -0.9375 7.1875 C-1.31777344 7.90292969 -1.69804687 8.61835937 -2.08984375 9.35546875 C-2.54037109 10.16951172 -2.54037109 10.16951172 -3 11 C-5 7.25 -5 7.25 -5 5 C-4.01 4.67 -3.02 4.34 -2 4 C-0.79117904 1.99983534 -0.79117904 1.99983534 0 0 Z " fill="#E24142" transform="translate(144,72)"/>
<path d="M0 0 C0 4.02646222 -1.20506099 7.41012198 -3 11 C-3.66 11 -4.32 11 -5 11 C-5.39169887 8.33644766 -5.40564529 6.60775627 -3.88671875 4.33203125 C-2.63610683 2.8489112 -1.32135486 1.42045648 0 0 Z " fill="#EA383A" transform="translate(98,39)"/>
<path d="M0 0 C1.32 0.33 2.64 0.66 4 1 C1.69 3.31 -0.62 5.62 -3 8 C-3.33 6.68 -3.66 5.36 -4 4 C-3.01 4 -2.02 4 -1 4 C-0.67 2.68 -0.34 1.36 0 0 Z " fill="#51B5ED" transform="translate(574,39)"/>
<path d="M0 0 C0.99 0.33 1.98 0.66 3 1 C2.360625 1.556875 1.72125 2.11375 1.0625 2.6875 C-1.19680987 5.22066561 -1.63149047 6.68341424 -2 10 C-2.99 9.01 -3.98 8.02 -5 7 C-4.67 6.01 -4.34 5.02 -4 4 C-3.34 4 -2.68 4 -2 4 C-1.34 2.68 -0.68 1.36 0 0 Z " fill="#54B0E7" transform="translate(477,67)"/>
<path d="M0 0 C0.33 0 0.66 0 1 0 C1 1.98 1 3.96 1 6 C1.99 6.33 2.98 6.66 4 7 C0.25 10 0.25 10 -2 10 C-1.34 6.7 -0.68 3.4 0 0 Z " fill="#4CB3EE" transform="translate(370,68)"/>
<path d="M0 0 C3 3.75 3 3.75 3 6 C0.36 5.67 -2.28 5.34 -5 5 C-3.35 3.35 -1.7 1.7 0 0 Z " fill="#45B2F0" transform="translate(413,71)"/>
<path d="M0 0 C2.5 2.3125 2.5 2.3125 5 5 C5 5.99 5 6.98 5 8 C4.01 8 3.02 8 2 8 C2 7.34 2 6.68 2 6 C1.34 5.67 0.68 5.34 0 5 C0 3.35 0 1.7 0 0 Z " fill="#50B0E8" transform="translate(561,63)"/>
<path d="M0 0 C0.66 0.33 1.32 0.66 2 1 C1.34 2.98 0.68 4.96 0 7 C-2.31 6.34 -4.62 5.68 -7 5 C-6.38125 4.855625 -5.7625 4.71125 -5.125 4.5625 C-2.96741678 4.06847775 -2.96741678 4.06847775 -1 3 C-0.67 2.01 -0.34 1.02 0 0 Z " fill="#DC4348" transform="translate(72,27)"/>
<path d="M0 0 C0.66 0 1.32 0 2 0 C2 0.66 2 1.32 2 2 C2.99 2.33 3.98 2.66 5 3 C5.33 4.65 5.66 6.3 6 8 C1.125 3.375 1.125 3.375 0 0 Z " fill="#E33F40" transform="translate(93,79)"/>
<path d="M0 0 C2.31 0 4.62 0 7 0 C6.34 1.65 5.68 3.3 5 5 C2 4 2 4 0.8125 1.9375 C0.544375 1.298125 0.27625 0.65875 0 0 Z " fill="#46B5F7" transform="translate(424,81)"/>
<path d="M0 0 C0.99 0 1.98 0 3 0 C4.5625 2.3125 4.5625 2.3125 6 5 C6.99 6.485 6.99 6.485 8 8 C4.63820226 6.55922954 2.40843732 4.75249979 0 2 C0 1.34 0 0.68 0 0 Z " fill="#50AEE2" transform="translate(401,81)"/>
<path d="M0 0 C-0.66 1.65 -1.32 3.3 -2 5 C-2.66 4.67 -3.32 4.34 -4 4 C-4 3.34 -4 2.68 -4 2 C-4.99 1.67 -5.98 1.34 -7 1 C-3.375 -1.125 -3.375 -1.125 0 0 Z " fill="#45B2F4" transform="translate(353,50)"/>
<path d="M0 0 C2.5 1.3125 2.5 1.3125 5 3 C5 3.99 5 4.98 5 6 C3.68 5.67 2.36 5.34 1 5 C0.67 3.35 0.34 1.7 0 0 Z " fill="#EB383C" transform="translate(133,37)"/>
<path d="M0 0 C0.33 0.99 0.66 1.98 1 3 C-1.375 4.5625 -1.375 4.5625 -4 6 C-4.66 5.67 -5.32 5.34 -6 5 C-4.02 3.35 -2.04 1.7 0 0 Z " fill="#DC4445" transform="translate(29,22)"/>
<path d="M0 0 C2.64 0.33 5.28 0.66 8 1 C8 1.33 8 1.66 8 2 C6.02 2 4.04 2 2 2 C1.67 2.66 1.34 3.32 1 4 C0.67 2.68 0.34 1.36 0 0 Z " fill="#E73F3F" transform="translate(65,17)"/>
</svg>
